<svg width="248" height="280" viewBox="0 0 248 280" fill="none" xmlns="http://www.w3.org/2000/svg">
<path d="M215.005 2.8875C213.533 1.05 211.456 0 209.255 0H38.7549C36.5694 0 34.4768 1.05 33.0043 2.8875C31.5473 4.7075 30.8188 7.1575 31.0358 9.625L54.2858 272.125C54.6888 276.605 58.0213 280 62.0048 280H186.005C189.988 280 193.321 276.605 193.708 272.125L216.958 9.625C217.191 7.1575 216.478 4.7075 215.005 2.8875Z" fill="#ECEFF1"/>
<path d="M194.375 89.25L179.03 262.5H68.9798L51.7748 68.775C71.1498 61.775 100.6 57.05 124.005 78.75C146.635 99.75 175.155 95.9 194.375 89.25Z" fill="#2196F3"/>
</svg>
